<svg
  xmlns="http://www.w3.org/2000/svg"
  width="49px" height="49px">
  <path fill-rule="evenodd"  fill="rgb(255, 82, 82)"
        d="M48.183,41.649 L46.751,41.649 C46.706,41.763 46.659,41.876 46.609,41.989 L47.622,43.003 C47.941,43.322 47.941,43.838 47.622,44.158 L44.158,47.622 C43.839,47.941 43.322,47.941 43.003,47.622 L41.990,46.608 C41.876,46.659 41.763,46.705 41.650,46.750 L41.650,48.183 C41.650,48.635 41.285,49.000 40.833,49.000 L35.933,49.000 C35.482,49.000 35.117,48.635 35.117,48.183 L35.117,46.750 C35.003,46.705 34.890,46.659 34.777,46.608 L33.763,47.622 C33.444,47.941 32.928,47.941 32.609,47.622 L29.144,44.158 C28.825,43.838 28.825,43.322 29.144,43.003 L30.158,41.989 C30.107,41.876 30.061,41.763 30.016,41.649 L28.583,41.649 C28.132,41.649 27.767,41.284 27.767,40.833 L10.208,40.833 C8.632,40.833 7.350,39.551 7.350,37.975 C7.350,36.398 8.632,35.116 10.208,35.116 L11.433,35.116 L11.655,35.116 L14.741,29.400 L4.083,29.400 C1.832,29.400 -0.000,27.568 -0.000,25.316 L-0.000,4.083 C-0.000,1.831 1.832,-0.000 4.083,-0.000 L41.650,-0.000 C43.901,-0.000 45.733,1.831 45.733,4.083 L45.733,25.316 C45.733,26.880 44.839,28.225 43.545,28.912 C43.766,28.901 43.989,28.975 44.158,29.144 L47.622,32.608 C47.941,32.928 47.941,33.444 47.622,33.763 L46.609,34.776 C46.659,34.890 46.706,35.003 46.751,35.116 L48.183,35.116 C48.635,35.116 49.000,35.481 49.000,35.933 L49.000,40.833 C49.000,41.284 48.635,41.649 48.183,41.649 ZM11.433,36.750 L10.208,36.750 C9.533,36.750 8.983,37.299 8.983,37.975 C8.983,38.650 9.533,39.199 10.208,39.199 L27.767,39.199 L27.767,36.750 L12.142,36.750 L11.433,36.750 ZM13.511,35.115 L28.583,35.115 L30.016,35.115 C30.061,35.002 30.107,34.889 30.158,34.776 L29.144,33.762 C28.825,33.443 28.825,32.927 29.144,32.607 L30.473,31.279 L29.192,29.400 L16.596,29.400 L13.511,35.115 ZM44.100,4.083 C44.100,2.732 43.001,1.633 41.650,1.633 L4.083,1.633 C2.732,1.633 1.633,2.732 1.633,4.083 L1.633,21.233 L44.100,21.233 L44.100,4.083 ZM44.100,25.316 L44.100,22.866 L1.633,22.866 L1.633,25.316 C1.633,26.667 2.732,27.766 4.083,27.766 L16.109,27.766 L29.624,27.766 L35.933,27.766 L40.833,27.766 L41.650,27.766 C43.001,27.766 44.100,26.667 44.100,25.316 ZM31.169,29.400 L31.648,30.103 L32.352,29.400 L31.169,29.400 ZM34.019,29.400 L34.777,30.157 C34.890,30.107 35.003,30.060 35.117,30.015 L35.117,29.400 L34.019,29.400 ZM41.650,29.400 L41.650,30.015 C41.763,30.060 41.876,30.107 41.990,30.157 L42.992,29.155 C42.569,29.303 42.123,29.400 41.650,29.400 ZM47.366,36.750 L46.175,36.750 C45.818,36.750 45.504,36.518 45.395,36.178 C45.271,35.783 45.104,35.382 44.897,34.986 C44.732,34.669 44.792,34.283 45.044,34.031 L45.890,33.185 L43.580,30.875 L42.734,31.721 C42.481,31.974 42.096,32.033 41.779,31.868 C41.384,31.662 40.982,31.494 40.587,31.370 C40.248,31.262 40.017,30.948 40.017,30.591 L40.017,29.400 L36.750,29.400 L36.750,30.591 C36.750,30.948 36.519,31.262 36.178,31.371 C35.784,31.495 35.382,31.662 34.987,31.869 C34.670,32.034 34.283,31.975 34.031,31.722 L33.185,30.876 L30.876,33.186 L31.722,34.032 C31.974,34.284 32.034,34.670 31.869,34.987 C31.662,35.382 31.495,35.784 31.371,36.179 C31.263,36.518 30.948,36.750 30.591,36.750 L29.400,36.750 L29.400,40.016 L30.591,40.016 C30.948,40.016 31.263,40.247 31.371,40.588 C31.495,40.982 31.663,41.384 31.869,41.779 C32.034,42.096 31.975,42.482 31.722,42.735 L30.876,43.581 L33.186,45.890 L34.032,45.045 C34.284,44.792 34.671,44.733 34.987,44.897 C35.383,45.104 35.784,45.271 36.179,45.396 C36.519,45.504 36.750,45.818 36.750,46.175 L36.750,47.366 L40.017,47.366 L40.017,46.175 C40.017,45.818 40.248,45.504 40.588,45.395 C40.983,45.271 41.384,45.103 41.780,44.897 C42.097,44.733 42.482,44.791 42.735,45.044 L43.581,45.890 L45.891,43.580 L45.045,42.734 C44.792,42.482 44.733,42.095 44.898,41.779 C45.104,41.383 45.272,40.982 45.396,40.587 C45.504,40.247 45.818,40.016 46.175,40.016 L47.366,40.016 L47.366,36.750 ZM38.383,43.283 C35.681,43.283 33.483,41.085 33.483,38.383 C33.483,35.680 35.681,33.483 38.383,33.483 C41.086,33.483 43.283,35.680 43.283,38.383 C43.283,41.085 41.086,43.283 38.383,43.283 ZM38.383,35.116 C36.582,35.116 35.117,36.581 35.117,38.383 C35.117,40.184 36.582,41.649 38.383,41.649 C40.185,41.649 41.650,40.184 41.650,38.383 C41.650,36.581 40.185,35.116 38.383,35.116 ZM14.939,5.139 L16.094,6.293 L10.955,11.433 L16.094,16.572 L14.939,17.727 L9.222,12.010 C8.903,11.691 8.903,11.175 9.222,10.855 L14.939,5.139 ZM26.044,3.636 L18.696,18.332 L17.235,17.601 L24.583,2.906 L26.044,3.636 ZM28.344,5.139 L34.061,10.855 C34.380,11.175 34.380,11.691 34.061,12.010 L28.344,17.727 L27.189,16.572 L32.328,11.433 L27.189,6.293 L28.344,5.139 ZM33.483,17.966 L31.850,17.966 L31.850,16.333 L33.483,16.333 L33.483,17.966 ZM36.750,17.966 L35.117,17.966 L35.117,16.333 L36.750,16.333 L36.750,17.966 ZM40.017,17.966 L38.383,17.966 L38.383,16.333 L40.017,16.333 L40.017,17.966 ZM5.717,42.466 C8.868,42.466 11.433,45.031 11.433,48.183 C11.433,48.635 11.068,49.000 10.617,49.000 L0.816,49.000 C0.365,49.000 -0.000,48.635 -0.000,48.183 C-0.000,45.031 2.565,42.466 5.717,42.466 ZM9.717,47.366 C9.392,45.770 8.130,44.516 6.533,44.189 L6.533,45.733 L4.900,45.733 L4.900,44.189 C3.303,44.515 2.041,45.770 1.716,47.366 L9.717,47.366 Z"/>
</svg>
