<svg
  xmlns="http://www.w3.org/2000/svg"
  width="51px" height="51px">
  <path fill-rule="evenodd"  fill="rgb(255, 82, 82)"
        d="M50.539,23.825 C50.447,23.864 50.350,23.882 50.254,23.882 C50.059,23.882 49.868,23.806 49.726,23.663 L44.336,18.273 L20.236,42.373 C20.090,42.519 19.899,42.592 19.708,42.592 C19.517,42.592 19.326,42.519 19.180,42.373 L14.430,37.624 L12.847,39.207 C12.701,39.353 12.510,39.426 12.319,39.426 C12.128,39.426 11.937,39.353 11.791,39.207 C11.500,38.916 11.500,38.443 11.791,38.152 L13.375,36.569 L8.625,31.819 C8.334,31.527 8.334,31.055 8.625,30.763 L32.725,6.663 L31.558,5.496 C31.557,5.495 31.557,5.495 31.556,5.494 L27.335,1.273 C27.122,1.060 27.058,0.739 27.173,0.460 C27.289,0.181 27.561,-0.001 27.863,-0.001 L50.253,-0.001 C50.665,-0.001 50.999,0.333 51.000,0.746 L51.000,23.136 C51.000,23.438 50.818,23.710 50.539,23.825 ZM49.507,21.334 L49.507,18.380 L46.552,18.380 L49.507,21.334 ZM19.707,40.791 L43.280,17.218 L42.225,16.163 L18.652,39.735 L19.707,40.791 ZM10.208,31.291 L15.486,36.569 L18.124,33.930 C18.416,33.638 18.889,33.638 19.180,33.930 C19.471,34.222 19.471,34.694 19.180,34.985 L16.541,37.624 L17.597,38.680 L41.169,15.107 L40.114,14.051 L37.475,16.690 C37.329,16.836 37.138,16.909 36.947,16.909 C36.756,16.909 36.565,16.836 36.419,16.690 C36.128,16.399 36.128,15.927 36.419,15.635 L39.058,12.996 L35.780,9.718 C35.780,9.717 35.779,9.717 35.778,9.716 L33.781,7.719 L10.208,31.291 ZM36.616,8.443 L49.507,8.443 L49.507,5.714 L33.887,5.714 L34.308,6.136 L36.616,8.443 ZM49.507,1.492 L29.665,1.492 L32.394,4.221 L49.507,4.221 L49.507,1.492 ZM49.507,9.936 L38.109,9.936 L40.838,12.665 L49.507,12.665 L49.507,9.936 ZM49.507,14.158 L42.331,14.158 L44.863,16.690 L45.060,16.887 L49.507,16.887 L49.507,14.158 ZM18.074,13.511 C17.929,13.657 17.738,13.730 17.547,13.730 C17.356,13.730 17.165,13.657 17.019,13.511 C16.727,13.220 16.727,12.747 17.019,12.455 L21.241,8.233 C21.533,7.942 22.005,7.942 22.296,8.233 C22.588,8.525 22.588,8.998 22.296,9.289 L18.074,13.511 ZM15.210,6.424 C15.064,6.570 14.873,6.643 14.682,6.643 C14.491,6.643 14.300,6.570 14.154,6.424 C13.863,6.133 13.863,5.660 14.154,5.369 L16.265,3.258 C16.557,2.966 17.029,2.966 17.321,3.258 C17.612,3.550 17.612,4.022 17.321,4.313 L15.210,6.424 ZM13.852,17.733 L9.630,21.955 C9.485,22.100 9.294,22.173 9.103,22.173 C8.912,22.173 8.721,22.100 8.575,21.955 C8.283,21.664 8.283,21.191 8.575,20.899 L12.797,16.678 C13.089,16.386 13.561,16.386 13.852,16.678 C14.144,16.969 14.144,17.441 13.852,17.733 ZM8.895,12.739 C8.749,12.884 8.558,12.958 8.368,12.958 C8.177,12.958 7.986,12.884 7.840,12.739 C7.548,12.448 7.548,11.975 7.840,11.684 L9.951,9.573 C10.242,9.281 10.715,9.281 11.006,9.573 C11.298,9.864 11.298,10.337 11.006,10.628 L8.895,12.739 ZM10.736,40.263 C11.027,40.554 11.027,41.027 10.736,41.318 L8.625,43.429 C8.479,43.575 8.288,43.648 8.097,43.648 C7.906,43.648 7.715,43.575 7.570,43.429 C7.278,43.138 7.278,42.665 7.570,42.374 L9.680,40.263 C9.972,39.971 10.444,39.971 10.736,40.263 ZM4.403,47.651 C4.257,47.797 4.066,47.870 3.875,47.870 C3.684,47.870 3.493,47.797 3.347,47.651 C3.056,47.360 3.056,46.887 3.347,46.596 L5.458,44.485 C5.750,44.193 6.222,44.193 6.514,44.485 C6.805,44.776 6.805,45.249 6.514,45.540 L4.403,47.651 ZM1.274,50.780 C1.128,50.926 0.937,50.999 0.746,50.999 C0.555,50.999 0.364,50.926 0.218,50.780 C-0.073,50.489 -0.073,50.017 0.218,49.725 L1.237,48.707 C1.528,48.416 2.000,48.416 2.292,48.707 C2.583,48.998 2.583,49.471 2.292,49.762 L1.274,50.780 ZM35.244,35.223 C35.536,34.932 36.008,34.932 36.300,35.223 C36.591,35.515 36.591,35.988 36.300,36.279 L32.078,40.501 C31.932,40.647 31.741,40.719 31.550,40.719 C31.359,40.719 31.168,40.647 31.022,40.501 C30.731,40.209 30.731,39.737 31.022,39.446 L35.244,35.223 ZM36.737,43.682 C37.028,43.390 37.501,43.390 37.792,43.682 C38.084,43.974 38.084,44.446 37.792,44.738 L33.570,48.959 C33.424,49.105 33.233,49.178 33.043,49.178 C32.852,49.178 32.661,49.105 32.515,48.959 C32.224,48.668 32.224,48.195 32.515,47.904 L36.737,43.682 ZM43.688,26.779 C43.980,26.488 44.452,26.488 44.744,26.779 C45.035,27.071 45.035,27.544 44.744,27.835 L40.522,32.057 C40.376,32.203 40.185,32.276 39.994,32.276 C39.803,32.276 39.612,32.203 39.466,32.057 C39.174,31.766 39.174,31.293 39.466,31.002 L43.688,26.779 ZM47.512,42.687 C47.804,42.395 48.276,42.395 48.568,42.687 C48.860,42.979 48.860,43.451 48.568,43.743 L44.346,47.964 C44.200,48.110 44.009,48.183 43.818,48.183 C43.627,48.183 43.436,48.110 43.290,47.964 C42.999,47.673 42.999,47.200 43.290,46.909 L47.512,42.687 Z"/>
</svg>
