<svg
  xmlns="http://www.w3.org/2000/svg"
  width="53px" height="52px">
  <path fill-rule="evenodd"  fill="rgb(255, 82, 82)"
        d="M52.999,26.452 C52.999,31.769 51.431,36.870 48.433,41.274 C47.625,42.460 46.275,43.168 44.821,43.168 L43.318,43.168 C42.860,43.168 42.488,42.797 42.488,42.340 C42.488,41.883 42.860,41.512 43.318,41.512 L44.821,41.512 C45.724,41.512 46.562,41.075 47.060,40.343 C47.856,39.174 48.543,37.951 49.121,36.687 L46.627,35.656 C46.204,35.481 46.002,34.997 46.178,34.574 C46.353,34.152 46.839,33.951 47.262,34.126 L49.759,35.158 C50.708,32.647 51.237,29.992 51.326,27.269 L48.629,27.269 C48.171,27.269 47.799,26.898 47.799,26.441 C47.799,25.984 48.171,25.613 48.629,25.613 L51.325,25.613 C51.322,25.530 51.321,25.448 51.317,25.366 C51.205,22.735 50.668,20.161 49.743,17.730 L47.262,18.756 C47.158,18.799 47.051,18.819 46.945,18.819 C46.619,18.819 46.310,18.626 46.178,18.307 C46.002,17.885 46.204,17.401 46.627,17.226 L49.102,16.203 C47.990,13.781 46.480,11.528 44.614,9.537 L42.734,11.412 C42.572,11.574 42.360,11.655 42.148,11.655 C41.935,11.655 41.723,11.574 41.561,11.412 C41.237,11.089 41.237,10.565 41.561,10.241 L43.440,8.366 C41.448,6.502 39.192,4.993 36.763,3.881 L35.735,6.357 C35.603,6.676 35.294,6.868 34.968,6.868 C34.862,6.868 34.755,6.848 34.651,6.805 C34.227,6.630 34.026,6.146 34.202,5.723 L35.232,3.242 C32.961,2.383 30.565,1.860 28.111,1.705 C27.850,1.689 27.590,1.677 27.330,1.669 L27.330,4.359 C27.330,4.817 26.958,5.188 26.500,5.188 C26.041,5.188 25.670,4.817 25.670,4.359 L25.670,1.668 C22.930,1.755 20.267,2.283 17.760,3.222 L18.798,5.723 C18.973,6.146 18.772,6.630 18.349,6.805 C18.245,6.848 18.138,6.868 18.032,6.868 C17.706,6.868 17.397,6.676 17.265,6.357 L16.226,3.856 C13.800,4.958 11.543,6.461 9.532,8.339 L11.439,10.241 C11.763,10.565 11.763,11.089 11.439,11.412 C11.277,11.574 11.064,11.655 10.852,11.655 C10.639,11.655 10.427,11.574 10.265,11.412 L8.359,9.510 C6.504,11.485 5.001,13.726 3.877,16.194 L6.372,17.226 C6.796,17.401 6.997,17.885 6.821,18.308 C6.689,18.627 6.380,18.819 6.054,18.819 C5.949,18.819 5.841,18.799 5.737,18.756 L3.240,17.724 C2.288,20.248 1.763,22.892 1.674,25.613 L4.370,25.613 C4.829,25.613 5.200,25.984 5.200,26.441 C5.200,26.898 4.829,27.269 4.370,27.269 L1.674,27.269 C1.764,29.988 2.296,32.646 3.243,35.157 L5.737,34.127 C6.161,33.952 6.646,34.152 6.821,34.575 C6.997,34.997 6.796,35.481 6.372,35.657 L3.879,36.687 C4.457,37.954 5.145,39.177 5.939,40.343 C6.438,41.075 7.275,41.512 8.179,41.512 L9.681,41.512 C10.140,41.512 10.511,41.883 10.511,42.340 C10.511,42.797 10.140,43.168 9.681,43.168 L8.179,43.168 C6.725,43.168 5.374,42.460 4.567,41.274 C1.579,36.886 -0.000,31.757 -0.000,26.441 C-0.000,22.724 0.757,19.130 2.252,15.758 C3.578,12.765 5.424,10.080 7.742,7.765 C7.748,7.758 7.754,7.750 7.761,7.743 C7.767,7.738 7.773,7.733 7.779,7.728 C7.971,7.536 8.165,7.347 8.364,7.161 C10.972,4.717 13.989,2.854 17.329,1.625 C20.261,0.546 23.327,0.003 26.465,-0.000 C26.476,-0.000 26.488,-0.002 26.500,-0.002 C26.511,-0.002 26.522,-0.000 26.534,-0.000 C27.092,0.001 27.653,0.017 28.216,0.052 C31.096,0.233 33.901,0.890 36.535,1.976 C36.570,1.986 36.606,1.996 36.641,2.011 C36.679,2.026 36.714,2.045 36.748,2.065 C39.796,3.354 42.607,5.219 45.027,7.591 C45.103,7.629 45.175,7.680 45.238,7.743 C45.301,7.806 45.352,7.877 45.390,7.953 C45.396,7.959 45.402,7.964 45.408,7.971 C47.766,10.375 49.620,13.162 50.905,16.178 C50.935,16.223 50.961,16.271 50.983,16.322 C51.002,16.369 51.016,16.416 51.026,16.464 C52.178,19.257 52.846,22.240 52.975,25.296 C52.991,25.676 52.999,26.055 52.999,26.433 C52.999,26.435 53.000,26.438 53.000,26.441 C53.000,26.445 52.999,26.449 52.999,26.452 ZM26.500,30.802 C24.090,30.802 22.129,28.846 22.129,26.441 C22.129,24.131 23.938,22.236 26.217,22.090 L38.848,12.963 C39.178,12.724 39.633,12.761 39.922,13.048 C40.210,13.336 40.246,13.790 40.007,14.119 L30.860,26.723 C30.714,28.997 28.814,30.802 26.500,30.802 ZM26.500,23.736 C25.005,23.736 23.789,24.950 23.789,26.441 C23.789,27.933 25.005,29.146 26.500,29.146 C27.994,29.146 29.211,27.933 29.211,26.441 C29.211,24.950 27.994,23.736 26.500,23.736 ZM28.435,22.532 C29.293,22.957 29.992,23.654 30.417,24.510 L35.621,17.340 L28.435,22.532 ZM16.763,32.679 L36.237,32.679 C38.647,32.679 40.607,34.636 40.607,37.040 L40.607,47.640 C40.607,50.044 38.647,52.001 36.237,52.001 L16.763,52.001 C14.353,52.001 12.392,50.044 12.392,47.640 L12.392,37.040 C12.392,34.636 14.353,32.679 16.763,32.679 ZM14.052,47.640 C14.052,49.131 15.268,50.345 16.763,50.345 L36.237,50.345 C37.731,50.345 38.948,49.131 38.948,47.640 L38.948,37.040 C38.948,35.549 37.731,34.335 36.237,34.335 L16.763,34.335 C15.268,34.335 14.052,35.549 14.052,37.040 L14.052,47.640 ZM21.487,37.338 C21.811,37.015 22.337,37.015 22.661,37.338 C22.985,37.661 22.985,38.186 22.661,38.509 L18.822,42.340 L22.661,46.171 C22.985,46.494 22.985,47.018 22.661,47.342 C22.499,47.504 22.286,47.584 22.074,47.584 C21.862,47.584 21.649,47.504 21.487,47.342 L17.061,42.925 C16.737,42.602 16.737,42.078 17.061,41.754 L21.487,37.338 ZM23.844,43.279 C24.062,43.279 24.277,43.367 24.431,43.521 C24.586,43.675 24.674,43.889 24.674,44.106 C24.674,44.324 24.586,44.538 24.431,44.692 C24.277,44.846 24.062,44.935 23.844,44.935 C23.626,44.935 23.412,44.846 23.258,44.692 C23.103,44.538 23.014,44.324 23.014,44.106 C23.014,43.889 23.103,43.675 23.258,43.521 C23.412,43.367 23.626,43.279 23.844,43.279 ZM26.500,43.279 C26.718,43.279 26.932,43.367 27.086,43.521 C27.241,43.675 27.330,43.889 27.330,44.106 C27.330,44.324 27.241,44.538 27.086,44.692 C26.932,44.846 26.718,44.935 26.500,44.935 C26.282,44.935 26.067,44.846 25.913,44.692 C25.758,44.538 25.670,44.324 25.670,44.106 C25.670,43.889 25.758,43.675 25.913,43.521 C26.067,43.367 26.282,43.279 26.500,43.279 ZM29.155,43.279 C29.373,43.279 29.588,43.367 29.742,43.521 C29.897,43.675 29.985,43.888 29.985,44.106 C29.985,44.324 29.897,44.538 29.742,44.692 C29.588,44.846 29.373,44.935 29.155,44.935 C28.937,44.935 28.723,44.846 28.569,44.692 C28.414,44.538 28.325,44.324 28.325,44.106 C28.325,43.889 28.414,43.675 28.569,43.521 C28.723,43.367 28.937,43.279 29.155,43.279 ZM30.339,37.338 C30.663,37.015 31.188,37.015 31.512,37.338 L35.938,41.754 C36.262,42.078 36.262,42.602 35.938,42.925 L31.512,47.342 C31.350,47.504 31.138,47.584 30.926,47.584 C30.713,47.584 30.501,47.504 30.339,47.342 C30.015,47.018 30.015,46.494 30.339,46.171 L34.178,42.340 L30.339,38.509 C30.015,38.186 30.015,37.661 30.339,37.338 Z"/>
</svg>
